# xmcd
#
# Track frame offsets:
#	150
#	30644
#	38714
#	64093
#	80663
#	104537
#	122162
#	149651
#	158456
#	173028
#	181605
#	198457
#	228646
#	249201
#	271510
#	284165
#	299434
#
# Disc length: 4327 seconds
#
# Revision: 1
# Processed by: cddbd v1.5.1PL0 Copyright (c) Steve Scherf et al.
# Submitted via: CDex 1.50Beta5
#
DISCID=f310e511
DTITLE=LOSALIOS - 世界地図は血の跡
DYEAR=1999
DGENRE=Rock
TTITLE0=BOOZ
TTITLE1=アナコンダ
TTITLE2=SILVER CAT
TTITLE3=NIGHT OF SALAMANDER
TTITLE4=肝臓野郎Cチーム
TTITLE5=BLACK BUNNY
TTITLE6=SILLY GLOOM
TTITLE7=I LOVE IGGY
TTITLE8=MC VIBE
TTITLE9=DUMMY RYDER
TTITLE10=回転ベッド
TTITLE11=ラタトウユ
TTITLE12=MONTECARLO BOM BOM
TTITLE13=帰って来た逃亡者
TTITLE14=中村一人旅
TTITLE15=I CAN’T SAY YES OR NO
TTITLE16=LADY BORE
EXTD=
EXTT0=
EXTT1=
EXTT2=
EXTT3=
EXTT4=
EXTT5=
EXTT6=
EXTT7=
EXTT8=
EXTT9=
EXTT10=
EXTT11=
EXTT12=
EXTT13=
EXTT14=
EXTT15=
EXTT16=
PLAYORDER=
